<svg viewBox="0 0 640 400" data-background-color="#619e8a" preserveAspectRatio="xMidYMid meet" height="400" width="640" xmlns="http://www.w3.org/2000/svg" xmlns:xlink="http://www.w3.org/1999/xlink"><circle stroke-width="3" stroke="#ffffff" fill="none" r="180" cx="320" cy="200"></circle><g id="tight-bounds" transform="matrix(1,0,0,1,202.99134727418732,76.4)"><svg viewBox="0 0 234.01730545162533 247.2" height="247.2" width="234.01730545162533"><g><svg viewBox="0 0 395.52 417.8004862132341" height="247.2" width="234.01730545162533"><g transform="matrix(1,0,0,1,0,191.8830294135381)"><svg viewBox="0 0 395.52 225.91745679969597" height="225.91745679969597" width="395.52"><g><svg viewBox="0 0 395.52 225.91745679969597" height="225.91745679969597" width="395.52"><g><svg viewBox="0 0 395.52 165.39497435693153" height="165.39497435693153" width="395.52"><g transform="matrix(1,0,0,1,0,0)"><svg width="395.52" viewBox="2.364285707473755 -37.099998474121094 88.71904754638672 37.099998474121094" height="165.39497435693153" data-palette-color="#ffffff"><path d="M49.25-37.1L49.25-37.1Q49.7-37.1 49.88-36.85 50.05-36.6 49.95-36.2L49.95-36.2 39.65-0.75Q39.4 0 38.55 0L38.55 0 35.5 0Q34.55 0 34.35-0.7L34.35-0.7 26.35-29.05Q26.3-29.3 26.2-29.3 26.1-29.3 26-29L26-29 17.9-0.75Q17.65 0 16.8 0L16.8 0 13.7 0Q12.75 0 12.55-0.7L12.55-0.7 2.4-36.2Q2.3-36.6 2.48-36.85 2.65-37.1 3.1-37.1L3.1-37.1 6.3-37.1Q6.7-37.1 6.9-36.98 7.1-36.85 7.15-36.5L7.15-36.5 15.3-7.4Q15.45-6.85 15.63-6.88 15.8-6.9 15.9-7.35L15.9-7.35 24.2-36.55Q24.3-36.75 24.48-36.93 24.65-37.1 25.1-37.1L25.1-37.1 27.95-37.1Q28.4-37.1 28.58-36.98 28.75-36.85 28.85-36.5L28.85-36.5 37.05-7.25Q37.2-6.8 37.35-6.83 37.5-6.85 37.65-7.25L37.65-7.25 45.9-36.55Q45.95-36.85 46.18-36.98 46.4-37.1 46.75-37.1L46.75-37.1 49.25-37.1ZM60.3-25.85L60.3-0.85Q60.3-0.35 60.12-0.18 59.95 0 59.4 0L59.4 0 56.85 0Q56.4 0 56.25-0.15 56.1-0.3 56.1-0.7L56.1-0.7 56.1-25.8Q56.1-26.5 56.7-26.5L56.7-26.5 59.75-26.5Q60.3-26.5 60.3-25.85L60.3-25.85ZM60.5-36.35L60.5-32.2Q60.5-31.25 59.6-31.25L59.6-31.25 56.7-31.25Q56.25-31.25 56.1-31.48 55.95-31.7 55.95-32.1L55.95-32.1 55.95-36.3Q55.95-37.1 56.65-37.1L56.65-37.1 59.8-37.1Q60.5-37.1 60.5-36.35L60.5-36.35ZM90.95-0.8L90.95-0.8Q91.15-0.5 91.05-0.25 90.95 0 90.5 0L90.5 0 87 0Q86.7 0 86.47-0.15 86.25-0.3 86.1-0.6L86.1-0.6 78.55-13.55Q78.45-13.75 78.32-13.83 78.2-13.9 77.95-13.65L77.95-13.65 72.65-8.3Q72.45-8.1 72.37-7.88 72.3-7.65 72.3-7.3L72.3-7.3 72.3-0.85Q72.3-0.35 72.12-0.18 71.95 0 71.4 0L71.4 0 68.85 0Q68.35 0 68.22-0.15 68.1-0.3 68.1-0.7L68.1-0.7 68.1-36.4Q68.1-37.1 68.65-37.1L68.65-37.1 71.7-37.1Q72.3-37.1 72.3-36.45L72.3-36.45 72.3-13.25Q72.3-12.85 72.4-12.78 72.5-12.7 72.8-13.05L72.8-13.05 85.15-25.9Q85.7-26.5 86.2-26.5L86.2-26.5 89.25-26.5Q89.75-26.5 89.82-26.23 89.9-25.95 89.5-25.55L89.5-25.55 81.6-17.5Q81.45-17.35 81.42-17.15 81.4-16.95 81.55-16.65L81.55-16.65 90.95-0.8Z" opacity="1" transform="matrix(1,0,0,1,0,0)" fill="#ffffff" class="undefined-text-0" data-fill-palette-color="primary" id="text-0"></path></svg></g></svg></g><g transform="matrix(1,0,0,1,0,204.4407583232185)"><svg viewBox="0 0 395.52 21.476698476477484" height="21.476698476477484" width="395.52"><g transform="matrix(1,0,0,1,0,0)"><svg width="395.52" viewBox="1.0499999523162842 -38.099998474121094 895.8500366210938 48.64999771118164" height="21.476698476477484" data-palette-color="#ffffff"><path d="M1.05-36.4L6-36.4 13.9-12.65Q14.3-11.4 14.65-10.23 15-9.05 15.4-7.65L15.4-7.65Q15.8-8.95 16.1-10.03 16.4-11.1 16.8-12.25L16.8-12.25 25.1-36.45 29.1-36.45 16.5 0.15 13.6 0.15 1.05-36.4ZM39.4-33.2L39.4-33.2Q39.4-31.95 38.52-31.05 37.65-30.15 36.35-30.15L36.35-30.15Q35.1-30.15 34.22-31.05 33.35-31.95 33.35-33.2L33.35-33.2Q33.35-34.45 34.22-35.35 35.1-36.25 36.35-36.25L36.35-36.25Q37.6-36.25 38.5-35.35 39.4-34.45 39.4-33.2ZM33.75-24.85L38.5-24.85 38.5 0 34.35 0 34.35-21.9 33.75-24.85ZM54.9-25.45L54.9-25.45Q56.6-25.45 58.27-25.03 59.95-24.6 61.35-23.7L61.35-23.7 59.9-20.5Q58.8-21.4 57.45-21.85 56.1-22.3 54.8-22.3L54.8-22.3Q52.95-22.3 51.57-21.45 50.2-20.6 50.2-18.9L50.2-18.9Q50.2-17.05 51.42-16.15 52.65-15.25 54.35-14.45L54.35-14.45Q55.6-13.85 56.87-13.23 58.15-12.6 59.22-11.73 60.3-10.85 60.97-9.63 61.65-8.4 61.65-6.6L61.65-6.6Q61.65-4.1 60.42-2.48 59.2-0.85 57.22-0.1 55.25 0.65 52.95 0.65L52.95 0.65Q50.95 0.65 48.95 0.1 46.95-0.45 45.25-1.45L45.25-1.45 47-4.5Q48.2-3.6 49.7-3.05 51.2-2.5 52.6-2.5L52.6-2.5Q54.5-2.5 55.92-3.4 57.35-4.3 57.35-6.1L57.35-6.1Q57.35-7.35 56.57-8.18 55.8-9 54.6-9.65 53.4-10.3 52.1-10.9L52.1-10.9Q50.6-11.65 49.17-12.53 47.75-13.4 46.85-14.75 45.95-16.1 45.95-18.2L45.95-18.2Q45.95-20.6 47.22-22.2 48.5-23.8 50.55-24.63 52.6-25.45 54.9-25.45ZM67.54-24.85L72.34-24.85 72.34-9.55Q72.34-8.1 72.59-6.58 72.84-5.05 73.72-4.05 74.59-3.05 76.49-3.05L76.49-3.05Q78.34-3.05 79.87-3.85 81.39-4.65 82.34-6.08 83.29-7.5 83.29-9.4L83.29-9.4 83.29-21.9Q83.29-21.95 83.14-22.63 82.99-23.3 82.84-24.03 82.69-24.75 82.64-24.85L82.64-24.85 87.44-24.85 87.44-4.85Q87.44-3.9 87.77-3.45 88.09-3 88.79-3L88.79-3Q89.49-3 90.69-3.45L90.69-3.45 91.59-0.75Q90.59-0.2 89.37 0.13 88.14 0.45 87.04 0.45L87.04 0.45Q85.74 0.45 84.74-0.3 83.74-1.05 83.44-2.95L83.44-2.95Q81.99-1.45 79.97-0.4 77.94 0.65 75.79 0.65L75.79 0.65Q73.04 0.65 71.37-0.5 69.69-1.65 68.94-3.63 68.19-5.6 68.19-8.2L68.19-8.2 68.19-21.9 67.54-24.85ZM104.49-25.45L104.49-25.45Q108.44-25.45 110.44-23.3 112.44-21.15 112.44-17.25L112.44-17.25 112.44-4.8Q112.44-3.75 112.84-3.38 113.24-3 113.79-3L113.79-3Q114.24-3 114.74-3.13 115.24-3.25 115.69-3.45L115.69-3.45 116.59-0.75Q115.79-0.3 114.57 0.08 113.34 0.45 112.04 0.45L112.04 0.45Q110.74 0.45 109.69-0.28 108.64-1 108.39-2.95L108.39-2.95Q106.94-1.4 104.99-0.43 103.04 0.55 100.89 0.55L100.89 0.55Q97.94 0.55 95.99-1.2 94.04-2.95 94.04-6L94.04-6Q94.04-8.85 95.42-10.55 96.79-12.25 98.99-13.1 101.19-13.95 103.67-14.25 106.14-14.55 108.29-14.55L108.29-14.55 108.29-17.2Q108.29-19.3 107.44-20.75 106.59-22.2 104.14-22.2L104.14-22.2Q102.24-22.2 100.49-21.45 98.74-20.7 96.99-19.25L96.99-19.25 94.94-22.2Q96.99-23.85 99.44-24.65 101.89-25.45 104.49-25.45ZM108.29-9.7L108.29-11.3Q106.94-11.3 105.24-11.18 103.54-11.05 101.94-10.58 100.34-10.1 99.32-9.05 98.29-8 98.29-6.15L98.29-6.15Q98.29-4.5 99.42-3.73 100.54-2.95 102.24-2.95L102.24-2.95Q104.04-2.95 105.39-3.95 106.74-4.95 107.52-6.5 108.29-8.05 108.29-9.7L108.29-9.7ZM120.09-38.1L124.89-38.1 124.89 0 120.74 0 120.74-35.2 120.09-38.1ZM138.34-33.2L138.34-33.2Q138.34-31.95 137.46-31.05 136.59-30.15 135.29-30.15L135.29-30.15Q134.04-30.15 133.16-31.05 132.29-31.95 132.29-33.2L132.29-33.2Q132.29-34.45 133.16-35.35 134.04-36.25 135.29-36.25L135.29-36.25Q136.54-36.25 137.44-35.35 138.34-34.45 138.34-33.2ZM132.69-24.85L137.44-24.85 137.44 0 133.29 0 133.29-21.9 132.69-24.85ZM144.38-21.65L144.38-24.85 161.68-24.85 161.68-22.45 148.78-3.15 162.28-3.15 161.73 0 143.23 0 143.23-2.35 156.08-21.65 144.38-21.65ZM177.38-25.45L177.38-25.45Q180.38-25.45 182.43-24.23 184.48-23 185.51-20.83 186.53-18.65 186.53-15.75L186.53-15.75Q186.53-15.05 186.46-14.33 186.38-13.6 186.28-12.8L186.28-12.8 170.48-12.8Q170.48-8.05 172.58-5.45 174.68-2.85 178.18-2.85L178.18-2.85Q179.63-2.85 181.21-3.3 182.78-3.75 184.48-4.65L184.48-4.65 186.03-2.15Q184.28-0.75 182.08-0.05 179.88 0.65 177.63 0.65L177.63 0.65Q173.73 0.65 171.16-1.2 168.58-3.05 167.33-6 166.08-8.95 166.08-12.15L166.08-12.15Q166.08-14.65 166.78-17 167.48-19.35 168.91-21.28 170.33-23.2 172.43-24.33 174.53-25.45 177.38-25.45ZM176.98-22.3L176.98-22.3Q175.28-22.3 173.98-21.35 172.68-20.4 171.88-18.93 171.08-17.45 170.78-15.9L170.78-15.9 182.18-15.9Q182.23-18 181.61-19.43 180.98-20.85 179.81-21.58 178.63-22.3 176.98-22.3ZM201.68-36.4L207.08-36.4 215.53-22.25 223.38-36.4 227.73-36.4 217.28-18 217.28 0 212.53 0 212.53-18 201.68-36.4ZM237.52 0.65L237.52 0.65Q233.87 0.65 231.4-1.18 228.92-3 227.7-5.95 226.47-8.9 226.47-12.25L226.47-12.25Q226.47-15.6 227.8-18.63 229.12-21.65 231.67-23.55 234.22-25.45 237.82-25.45L237.82-25.45Q241.52-25.45 244-23.65 246.47-21.85 247.7-18.9 248.92-15.95 248.92-12.55L248.92-12.55Q248.92-9.15 247.62-6.13 246.32-3.1 243.77-1.23 241.22 0.65 237.52 0.65ZM237.57-2.5L237.57-2.5Q239.52-2.5 240.85-3.43 242.17-4.35 243-5.85 243.82-7.35 244.17-9.08 244.52-10.8 244.52-12.4L244.52-12.4Q244.52-14.05 244.2-15.78 243.87-17.5 243.12-18.98 242.37-20.45 241.05-21.38 239.72-22.3 237.77-22.3L237.77-22.3Q235.82-22.3 234.5-21.38 233.17-20.45 232.37-18.95 231.57-17.45 231.22-15.73 230.87-14 230.87-12.4L230.87-12.4Q230.87-10.85 231.22-9.13 231.57-7.4 232.35-5.9 233.12-4.4 234.42-3.45 235.72-2.5 237.57-2.5ZM254.47-24.85L259.27-24.85 259.27-9.55Q259.27-8.1 259.52-6.58 259.77-5.05 260.65-4.05 261.52-3.05 263.42-3.05L263.42-3.05Q265.27-3.05 266.8-3.85 268.32-4.65 269.27-6.08 270.22-7.5 270.22-9.4L270.22-9.4 270.22-21.9Q270.22-21.95 270.07-22.63 269.92-23.3 269.77-24.03 269.62-24.75 269.57-24.85L269.57-24.85 274.37-24.85 274.37-4.85Q274.37-3.9 274.7-3.45 275.02-3 275.72-3L275.72-3Q276.42-3 277.62-3.45L277.62-3.45 278.52-0.75Q277.52-0.2 276.3 0.13 275.07 0.45 273.97 0.45L273.97 0.45Q272.67 0.45 271.67-0.3 270.67-1.05 270.37-2.95L270.37-2.95Q268.92-1.45 266.9-0.4 264.87 0.65 262.72 0.65L262.72 0.65Q259.97 0.65 258.3-0.5 256.62-1.65 255.87-3.63 255.12-5.6 255.12-8.2L255.12-8.2 255.12-21.9 254.47-24.85ZM281.22-24.75L285.72-25.3Q286.62-23.1 286.87-20.65L286.87-20.65Q288.17-22.7 290.37-24 292.57-25.3 295.02-25.3L295.02-25.3 294.02-20.9Q291.62-20.9 289.94-19.65 288.27-18.4 286.97-16.5L286.97-16.5 286.97 0 282.82 0 282.82-18Q282.82-19 282.67-20.25 282.52-21.5 282.17-22.7 281.82-23.9 281.22-24.75L281.22-24.75ZM308.76-36.4L313.66-36.4 319.76-13.85Q320.16-12.5 320.51-11.13 320.86-9.75 321.21-8L321.21-8Q321.56-9.6 321.86-10.88 322.16-12.15 322.51-13.4L322.51-13.4 328.71-36.4 332.41-36.4 338.51-13.65Q338.86-12.4 339.21-11.03 339.56-9.65 339.91-8L339.91-8Q340.26-9.6 340.56-10.85 340.86-12.1 341.21-13.3L341.21-13.3 347.46-36.4 351.36-36.4 341.41 0.25 337.56 0.25 331.21-23Q330.96-24 330.66-25.08 330.36-26.15 330.11-27.55L330.11-27.55Q329.81-26.15 329.54-25.03 329.26-23.9 328.96-22.85L328.96-22.85 322.71 0.25 318.86 0.25 308.76-36.4ZM360.81-25.45L360.81-25.45Q364.76-25.45 366.76-23.3 368.76-21.15 368.76-17.25L368.76-17.25 368.76-4.8Q368.76-3.75 369.16-3.38 369.56-3 370.11-3L370.11-3Q370.56-3 371.06-3.13 371.56-3.25 372.01-3.45L372.01-3.45 372.91-0.75Q372.11-0.3 370.89 0.08 369.66 0.45 368.36 0.45L368.36 0.45Q367.06 0.45 366.01-0.28 364.96-1 364.71-2.95L364.71-2.95Q363.26-1.4 361.31-0.43 359.36 0.55 357.21 0.55L357.21 0.55Q354.26 0.55 352.31-1.2 350.36-2.95 350.36-6L350.36-6Q350.36-8.85 351.74-10.55 353.11-12.25 355.31-13.1 357.51-13.95 359.99-14.25 362.46-14.55 364.61-14.55L364.61-14.55 364.61-17.2Q364.61-19.3 363.76-20.75 362.91-22.2 360.46-22.2L360.46-22.2Q358.56-22.2 356.81-21.45 355.06-20.7 353.31-19.25L353.31-19.25 351.26-22.2Q353.31-23.85 355.76-24.65 358.21-25.45 360.81-25.45ZM364.61-9.7L364.61-11.3Q363.26-11.3 361.56-11.18 359.86-11.05 358.26-10.58 356.66-10.1 355.64-9.05 354.61-8 354.61-6.15L354.61-6.15Q354.61-4.5 355.74-3.73 356.86-2.95 358.56-2.95L358.56-2.95Q360.36-2.95 361.71-3.95 363.06-4.95 363.84-6.5 364.61-8.05 364.61-9.7L364.61-9.7ZM375.31-24.75L379.81-25.3Q380.71-23.1 380.96-20.65L380.96-20.65Q382.26-22.7 384.46-24 386.66-25.3 389.11-25.3L389.11-25.3 388.11-20.9Q385.71-20.9 384.03-19.65 382.36-18.4 381.06-16.5L381.06-16.5 381.06 0 376.91 0 376.91-18Q376.91-19 376.76-20.25 376.61-21.5 376.26-22.7 375.91-23.9 375.31-24.75L375.31-24.75ZM403.81-25.45L403.81-25.45Q406.81-25.45 408.86-24.23 410.91-23 411.93-20.83 412.95-18.65 412.95-15.75L412.95-15.75Q412.95-15.05 412.88-14.33 412.81-13.6 412.7-12.8L412.7-12.8 396.91-12.8Q396.91-8.05 399-5.45 401.11-2.85 404.61-2.85L404.61-2.85Q406.06-2.85 407.63-3.3 409.2-3.75 410.91-4.65L410.91-4.65 412.45-2.15Q410.7-0.75 408.5-0.05 406.31 0.65 404.06 0.65L404.06 0.65Q400.16 0.65 397.58-1.2 395-3.05 393.75-6 392.5-8.95 392.5-12.15L392.5-12.15Q392.5-14.65 393.2-17 393.91-19.35 395.33-21.28 396.75-23.2 398.86-24.33 400.95-25.45 403.81-25.45ZM403.41-22.3L403.41-22.3Q401.7-22.3 400.41-21.35 399.11-20.4 398.31-18.93 397.5-17.45 397.2-15.9L397.2-15.9 408.61-15.9Q408.66-18 408.03-19.43 407.41-20.85 406.23-21.58 405.06-22.3 403.41-22.3ZM418.45-38.1L423.2-38.1 423.2-21.9Q424.8-23.4 426.65-24.45 428.5-25.5 430.75-25.5L430.75-25.5Q433.5-25.5 435.15-24.35 436.8-23.2 437.55-21.23 438.3-19.25 438.3-16.65L438.3-16.65 438.3 0 434.2 0 434.2-15.3Q434.2-16.85 433.98-18.32 433.75-19.8 432.9-20.8 432.05-21.8 430.05-21.8L430.05-21.8Q428.8-21.8 427.58-21.3 426.35-20.8 425.25-20.05 424.15-19.3 423.2-18.5L423.2-18.5 423.2 0 419.1 0 419.1-35.15 418.45-38.1ZM455.6 0.65L455.6 0.65Q451.95 0.65 449.48-1.18 447-3 445.78-5.95 444.55-8.9 444.55-12.25L444.55-12.25Q444.55-15.6 445.88-18.63 447.2-21.65 449.75-23.55 452.3-25.45 455.9-25.45L455.9-25.45Q459.6-25.45 462.08-23.65 464.55-21.85 465.78-18.9 467-15.95 467-12.55L467-12.55Q467-9.15 465.7-6.13 464.4-3.1 461.85-1.23 459.3 0.65 455.6 0.65ZM455.65-2.5L455.65-2.5Q457.6-2.5 458.93-3.43 460.25-4.35 461.08-5.85 461.9-7.35 462.25-9.08 462.6-10.8 462.6-12.4L462.6-12.4Q462.6-14.05 462.28-15.78 461.95-17.5 461.2-18.98 460.45-20.45 459.13-21.38 457.8-22.3 455.85-22.3L455.85-22.3Q453.9-22.3 452.58-21.38 451.25-20.45 450.45-18.95 449.65-17.45 449.3-15.73 448.95-14 448.95-12.4L448.95-12.4Q448.95-10.85 449.3-9.13 449.65-7.4 450.43-5.9 451.2-4.4 452.5-3.45 453.8-2.5 455.65-2.5ZM472.55-24.85L477.35-24.85 477.35-9.55Q477.35-8.1 477.6-6.58 477.85-5.05 478.72-4.05 479.6-3.05 481.5-3.05L481.5-3.05Q483.35-3.05 484.87-3.85 486.4-4.65 487.35-6.08 488.3-7.5 488.3-9.4L488.3-9.4 488.3-21.9Q488.3-21.95 488.15-22.63 488-23.3 487.85-24.03 487.7-24.75 487.65-24.85L487.65-24.85 492.45-24.85 492.45-4.85Q492.45-3.9 492.77-3.45 493.1-3 493.8-3L493.8-3Q494.5-3 495.7-3.45L495.7-3.45 496.6-0.75Q495.6-0.2 494.37 0.13 493.15 0.45 492.05 0.45L492.05 0.45Q490.75 0.45 489.75-0.3 488.75-1.05 488.45-2.95L488.45-2.95Q487-1.45 484.97-0.4 482.95 0.65 480.8 0.65L480.8 0.65Q478.05 0.65 476.37-0.5 474.7-1.65 473.95-3.63 473.2-5.6 473.2-8.2L473.2-8.2 473.2-21.9 472.55-24.85ZM509.05-25.45L509.05-25.45Q510.75-25.45 512.42-25.03 514.1-24.6 515.5-23.7L515.5-23.7 514.05-20.5Q512.95-21.4 511.6-21.85 510.25-22.3 508.95-22.3L508.95-22.3Q507.1-22.3 505.72-21.45 504.35-20.6 504.35-18.9L504.35-18.9Q504.35-17.05 505.57-16.15 506.8-15.25 508.5-14.45L508.5-14.45Q509.75-13.85 511.02-13.23 512.3-12.6 513.37-11.73 514.45-10.85 515.12-9.63 515.8-8.4 515.8-6.6L515.8-6.6Q515.8-4.1 514.57-2.48 513.35-0.85 511.37-0.1 509.4 0.65 507.1 0.65L507.1 0.65Q505.1 0.65 503.1 0.1 501.1-0.45 499.4-1.45L499.4-1.45 501.15-4.5Q502.35-3.6 503.85-3.05 505.35-2.5 506.75-2.5L506.75-2.5Q508.65-2.5 510.07-3.4 511.5-4.3 511.5-6.1L511.5-6.1Q511.5-7.35 510.72-8.18 509.95-9 508.75-9.65 507.55-10.3 506.25-10.9L506.25-10.9Q504.75-11.65 503.32-12.53 501.9-13.4 501-14.75 500.1-16.1 500.1-18.2L500.1-18.2Q500.1-20.6 501.37-22.2 502.65-23.8 504.7-24.63 506.75-25.45 509.05-25.45ZM531.84-25.45L531.84-25.45Q534.84-25.45 536.89-24.23 538.94-23 539.97-20.83 540.99-18.65 540.99-15.75L540.99-15.75Q540.99-15.05 540.92-14.33 540.84-13.6 540.74-12.8L540.74-12.8 524.94-12.8Q524.94-8.05 527.04-5.45 529.14-2.85 532.64-2.85L532.64-2.85Q534.09-2.85 535.67-3.3 537.24-3.75 538.94-4.65L538.94-4.65 540.49-2.15Q538.74-0.75 536.54-0.05 534.34 0.65 532.09 0.65L532.09 0.65Q528.19 0.65 525.62-1.2 523.04-3.05 521.79-6 520.54-8.95 520.54-12.15L520.54-12.15Q520.54-14.65 521.24-17 521.94-19.35 523.37-21.28 524.79-23.2 526.89-24.33 528.99-25.45 531.84-25.45ZM531.44-22.3L531.44-22.3Q529.74-22.3 528.44-21.35 527.14-20.4 526.34-18.93 525.54-17.45 525.24-15.9L525.24-15.9 536.64-15.9Q536.69-18 536.07-19.43 535.44-20.85 534.27-21.58 533.09-22.3 531.44-22.3ZM558.94-33.1L558.19-36.4 563.59-36.4 563.59-3.05Q563.59-0.45 563.21 1.9 562.84 4.25 561.81 6.08 560.79 7.9 558.91 9.08 557.04 10.25 553.99 10.55L553.99 10.55 553.34 7.6Q555.29 7.3 556.44 6.25 557.59 5.2 558.11 3.7 558.64 2.2 558.79 0.5 558.94-1.2 558.94-2.75L558.94-2.75 558.94-33.1ZM571.28-24.85L576.08-24.85 576.08-9.55Q576.08-8.1 576.33-6.58 576.58-5.05 577.46-4.05 578.33-3.05 580.23-3.05L580.23-3.05Q582.08-3.05 583.61-3.85 585.13-4.65 586.08-6.08 587.03-7.5 587.03-9.4L587.03-9.4 587.03-21.9Q587.03-21.95 586.88-22.63 586.73-23.3 586.58-24.03 586.43-24.75 586.38-24.85L586.38-24.85 591.18-24.85 591.18-4.85Q591.18-3.9 591.51-3.45 591.83-3 592.53-3L592.53-3Q593.23-3 594.43-3.45L594.43-3.45 595.33-0.75Q594.33-0.2 593.11 0.13 591.88 0.45 590.78 0.45L590.78 0.45Q589.48 0.45 588.48-0.3 587.48-1.05 587.18-2.95L587.18-2.95Q585.73-1.45 583.71-0.4 581.68 0.65 579.53 0.65L579.53 0.65Q576.78 0.65 575.11-0.5 573.43-1.65 572.68-3.63 571.93-5.6 571.93-8.2L571.93-8.2 571.93-21.9 571.28-24.85ZM607.78-25.45L607.78-25.45Q609.48-25.45 611.16-25.03 612.83-24.6 614.23-23.7L614.23-23.7 612.78-20.5Q611.68-21.4 610.33-21.85 608.98-22.3 607.68-22.3L607.68-22.3Q605.83-22.3 604.46-21.45 603.08-20.6 603.08-18.9L603.08-18.9Q603.08-17.05 604.31-16.15 605.53-15.25 607.23-14.45L607.23-14.45Q608.48-13.85 609.76-13.23 611.03-12.6 612.11-11.73 613.18-10.85 613.86-9.63 614.53-8.4 614.53-6.6L614.53-6.6Q614.53-4.1 613.31-2.48 612.08-0.85 610.11-0.1 608.13 0.65 605.83 0.65L605.83 0.65Q603.83 0.65 601.83 0.1 599.83-0.45 598.13-1.45L598.13-1.45 599.88-4.5Q601.08-3.6 602.58-3.05 604.08-2.5 605.48-2.5L605.48-2.5Q607.38-2.5 608.81-3.4 610.23-4.3 610.23-6.1L610.23-6.1Q610.23-7.35 609.46-8.18 608.68-9 607.48-9.65 606.28-10.3 604.98-10.9L604.98-10.9Q603.48-11.65 602.06-12.53 600.63-13.4 599.73-14.75 598.83-16.1 598.83-18.2L598.83-18.2Q598.83-20.6 600.11-22.2 601.38-23.8 603.43-24.63 605.48-25.45 607.78-25.45ZM623.88-31.95L626.93-31.95Q626.58-30.25 626.3-28.43 626.03-26.6 625.93-24.85L625.93-24.85 632.43-24.85 631.58-21.7 625.93-21.7 625.93-5.8Q625.93-4.85 626.15-4.13 626.38-3.4 626.95-3.03 627.53-2.65 628.58-2.65L628.58-2.65Q629.38-2.65 630.18-2.8 630.98-2.95 631.73-3.15L631.73-3.15 632.43-0.35Q631.18 0 630.05 0.28 628.93 0.55 627.48 0.55L627.48 0.55Q624.28 0.55 623.03-1.15 621.78-2.85 621.78-5.9L621.78-5.9 621.78-21.7 618.08-21.7 618.08-24.2Q620.08-24.25 621.23-25.53 622.38-26.8 622.98-28.6 623.58-30.4 623.88-31.95L623.88-31.95ZM648.57-36.4L648.57-36.4 653.92-36.4 653.92 0 649.27 0 649.27-33.1Q649.27-33.15 649.1-33.9 648.92-34.65 648.77-35.45 648.62-36.25 648.57-36.4ZM660.67-24.65L665.22-25.25Q665.57-24.4 665.82-23.5 666.07-22.6 666.17-21.7L666.17-21.7Q667.67-23.2 669.72-24.33 671.77-25.45 673.92-25.45L673.92-25.45Q676.67-25.45 678.35-24.3 680.02-23.15 680.77-21.18 681.52-19.2 681.52-16.6L681.52-16.6 681.52 0 677.42 0 677.42-15.25Q677.42-16.8 677.2-18.3 676.97-19.8 676.1-20.78 675.22-21.75 673.22-21.75L673.22-21.75Q672.02-21.75 670.77-21.28 669.52-20.8 668.42-20.05 667.32-19.3 666.42-18.45L666.42-18.45 666.42 0 662.32 0 662.32-17.6Q662.32-18.6 662.17-19.93 662.02-21.25 661.67-22.53 661.32-23.8 660.67-24.65L660.67-24.65ZM707.77-25.5L707.77-25.5Q711.27-25.5 713.02-23.98 714.77-22.45 714.77-20L714.77-20Q714.77-18.1 713.97-16.38 713.17-14.65 711.59-13.1 710.02-11.55 707.67-10.15L707.67-10.15Q709.47-10.1 711.17-9.3 712.87-8.5 713.97-6.95 715.07-5.4 715.07-2.95L715.07-2.95Q715.07 0.1 713.72 2.3 712.37 4.5 710.14 6 707.92 7.5 705.22 8.35 702.52 9.2 699.77 9.53 697.02 9.85 694.67 9.8L694.67 9.8 694.42 7.6Q697.12 7.45 699.92 6.85 702.72 6.25 705.04 5.03 707.37 3.8 708.82 1.9 710.27 0 710.27-2.7L710.27-2.7Q710.27-5.25 708.87-6.48 707.47-7.7 705.37-7.7L705.37-7.7Q703.97-7.7 702.22-7.15L702.22-7.15 701.07-9.55Q703.17-10.4 704.84-11.6 706.52-12.8 707.72-14.18 708.92-15.55 709.57-16.95 710.22-18.35 710.22-19.6L710.22-19.6Q710.22-20.8 709.49-21.55 708.77-22.3 707.17-22.3L707.17-22.3Q705.47-22.3 703.54-21.4 701.62-20.5 700.47-19.1L700.47-19.1 698.27-21.95Q700.32-23.7 702.87-24.6 705.42-25.5 707.77-25.5ZM731.06-24.7L735.61-25.2Q735.96-24.4 736.21-23.5 736.46-22.6 736.56-21.75L736.56-21.75Q737.91-23.05 739.86-24.25 741.81-25.45 743.81-25.45L743.81-25.45Q746.21-25.45 747.91-24.48 749.61-23.5 750.66-21.3L750.66-21.3Q752.16-22.8 754.21-24.13 756.26-25.45 758.41-25.45L758.41-25.45Q761.16-25.45 762.84-24.3 764.51-23.15 765.26-21.18 766.01-19.2 766.01-16.6L766.01-16.6 766.01 0 761.86 0 761.86-15.25Q761.86-16.75 761.64-18.25 761.41-19.75 760.54-20.75 759.66-21.75 757.71-21.75L757.71-21.75Q755.96-21.75 754.26-20.63 752.56-19.5 751.41-18.35L751.41-18.35 751.41 0 747.26 0 747.26-15.25Q747.26-16.8 747.04-18.28 746.81-19.75 745.94-20.75 745.06-21.75 743.11-21.75L743.11-21.75Q742.01-21.75 740.86-21.23 739.71-20.7 738.66-19.93 737.61-19.15 736.81-18.45L736.81-18.45 736.81 0 732.66 0 732.66-18.05Q732.66-19.1 732.49-20.3 732.31-21.5 731.96-22.65 731.61-23.8 731.06-24.7L731.06-24.7ZM779.36-33.2L779.36-33.2Q779.36-31.95 778.48-31.05 777.61-30.15 776.31-30.15L776.31-30.15Q775.06-30.15 774.18-31.05 773.31-31.95 773.31-33.2L773.31-33.2Q773.31-34.45 774.18-35.35 775.06-36.25 776.31-36.25L776.31-36.25Q777.56-36.25 778.46-35.35 779.36-34.45 779.36-33.2ZM773.71-24.85L778.46-24.85 778.46 0 774.31 0 774.31-21.9 773.71-24.85ZM785.01-24.65L789.56-25.25Q789.91-24.4 790.16-23.5 790.41-22.6 790.51-21.7L790.51-21.7Q792.01-23.2 794.06-24.33 796.11-25.45 798.26-25.45L798.26-25.45Q801.01-25.45 802.68-24.3 804.36-23.15 805.11-21.18 805.86-19.2 805.86-16.6L805.86-16.6 805.86 0 801.76 0 801.76-15.25Q801.76-16.8 801.53-18.3 801.31-19.8 800.43-20.78 799.56-21.75 797.56-21.75L797.56-21.75Q796.36-21.75 795.11-21.28 793.86-20.8 792.76-20.05 791.66-19.3 790.76-18.45L790.76-18.45 790.76 0 786.66 0 786.66-17.6Q786.66-18.6 786.51-19.93 786.36-21.25 786.01-22.53 785.66-23.8 785.01-24.65L785.01-24.65ZM813.35-24.85L818.15-24.85 818.15-9.55Q818.15-8.1 818.4-6.58 818.65-5.05 819.53-4.05 820.4-3.05 822.3-3.05L822.3-3.05Q824.15-3.05 825.68-3.85 827.2-4.65 828.15-6.08 829.1-7.5 829.1-9.4L829.1-9.4 829.1-21.9Q829.1-21.95 828.95-22.63 828.8-23.3 828.65-24.03 828.5-24.75 828.45-24.85L828.45-24.85 833.25-24.85 833.25-4.85Q833.25-3.9 833.58-3.45 833.9-3 834.6-3L834.6-3Q835.3-3 836.5-3.45L836.5-3.45 837.4-0.75Q836.4-0.2 835.18 0.13 833.95 0.45 832.85 0.45L832.85 0.45Q831.55 0.45 830.55-0.3 829.55-1.05 829.25-2.95L829.25-2.95Q827.8-1.45 825.78-0.4 823.75 0.65 821.6 0.65L821.6 0.65Q818.85 0.65 817.18-0.5 815.5-1.65 814.75-3.63 814-5.6 814-8.2L814-8.2 814-21.9 813.35-24.85ZM844.45-31.95L847.5-31.95Q847.15-30.25 846.88-28.43 846.6-26.6 846.5-24.85L846.5-24.85 853-24.85 852.15-21.7 846.5-21.7 846.5-5.8Q846.5-4.85 846.73-4.13 846.95-3.4 847.53-3.03 848.1-2.65 849.15-2.65L849.15-2.65Q849.95-2.65 850.75-2.8 851.55-2.95 852.3-3.15L852.3-3.15 853-0.35Q851.75 0 850.63 0.28 849.5 0.55 848.05 0.55L848.05 0.55Q844.85 0.55 843.6-1.15 842.35-2.85 842.35-5.9L842.35-5.9 842.35-21.7 838.65-21.7 838.65-24.2Q840.65-24.25 841.8-25.53 842.95-26.8 843.55-28.6 844.15-30.4 844.45-31.95L844.45-31.95ZM866.75-25.45L866.75-25.45Q869.75-25.45 871.8-24.23 873.85-23 874.87-20.83 875.9-18.65 875.9-15.75L875.9-15.75Q875.9-15.05 875.82-14.33 875.75-13.6 875.65-12.8L875.65-12.8 859.85-12.8Q859.85-8.05 861.95-5.45 864.05-2.85 867.55-2.85L867.55-2.85Q869-2.85 870.57-3.3 872.15-3.75 873.85-4.65L873.85-4.65 875.4-2.15Q873.65-0.75 871.45-0.05 869.25 0.65 867 0.65L867 0.65Q863.1 0.65 860.52-1.2 857.95-3.05 856.7-6 855.45-8.95 855.45-12.15L855.45-12.15Q855.45-14.65 856.15-17 856.85-19.35 858.27-21.28 859.7-23.2 861.8-24.33 863.9-25.45 866.75-25.45ZM866.35-22.3L866.35-22.3Q864.65-22.3 863.35-21.35 862.05-20.4 861.25-18.93 860.45-17.45 860.15-15.9L860.15-15.9 871.55-15.9Q871.6-18 870.97-19.43 870.35-20.85 869.17-21.58 868-22.3 866.35-22.3ZM890.15-25.45L890.15-25.45Q891.85-25.45 893.52-25.03 895.2-24.6 896.6-23.7L896.6-23.7 895.15-20.5Q894.05-21.4 892.7-21.85 891.35-22.3 890.05-22.3L890.05-22.3Q888.2-22.3 886.82-21.45 885.45-20.6 885.45-18.9L885.45-18.9Q885.45-17.05 886.67-16.15 887.9-15.25 889.6-14.45L889.6-14.45Q890.85-13.85 892.12-13.23 893.4-12.6 894.47-11.73 895.55-10.85 896.22-9.63 896.9-8.4 896.9-6.6L896.9-6.6Q896.9-4.1 895.67-2.48 894.45-0.85 892.47-0.1 890.5 0.65 888.2 0.65L888.2 0.65Q886.2 0.65 884.2 0.1 882.2-0.45 880.5-1.45L880.5-1.45 882.25-4.5Q883.45-3.6 884.95-3.05 886.45-2.5 887.85-2.5L887.85-2.5Q889.75-2.5 891.17-3.4 892.6-4.3 892.6-6.1L892.6-6.1Q892.6-7.35 891.82-8.18 891.05-9 889.85-9.65 888.65-10.3 887.35-10.9L887.35-10.9Q885.85-11.65 884.42-12.53 883-13.4 882.1-14.75 881.2-16.1 881.2-18.2L881.2-18.2Q881.2-20.6 882.47-22.2 883.75-23.8 885.8-24.63 887.85-25.45 890.15-25.45Z" opacity="1" transform="matrix(1,0,0,1,0,0)" fill="#ffffff" class="undefined-text-1" data-fill-palette-color="secondary" id="text-1"></path></svg></g></svg></g></svg></g></svg></g><g transform="matrix(1,0,0,1,75.54431999999998,0)"><svg viewBox="0 0 244.43136 152.83724544725115" height="152.83724544725115" width="244.43136"><g><svg xmlns="http://www.w3.org/2000/svg" xmlns:xlink="http://www.w3.org/1999/xlink" version="1.1" x="0" y="0" viewBox="3.249000072479248 26.929996490478516 93.5009994506836 58.4640007019043" enable-background="new 0 0 100 100" xml:space="preserve" height="152.83724544725115" width="244.43136" class="icon-icon-0" data-fill-palette-color="accent" id="icon-0"><g fill="#ffffff" data-fill-palette-color="accent"><g fill="#ffffff" data-fill-palette-color="accent"><path d="M3.249 49.722l0.908 15.407c0 0.894 0.646 1.636 1.496 1.786-0.011 0.079-0.019 0.158-0.019 0.239V83.7c0 0.936 0.758 1.694 1.693 1.694 0.059 0 0.117-0.002 0.174-0.009h3.659c0.936 0 1.693 0.15 1.693-0.785s-0.758-1.694-1.693-1.694l-2.14-0.507V67.152c0-0.092-0.01-0.183-0.024-0.271 0.775-0.206 1.348-0.912 1.348-1.753l-0.104-7.168 4.25 4.896c0.571 0.658 1.567 0.729 2.225 0.159 0.658-0.573 0.73-1.569 0.158-2.227l-6.701-7.726-0.03-2.182-5.077-2.977C4.063 47.906 3.249 48.719 3.249 49.722z" fill="#ffffff" data-fill-palette-color="accent"></path><circle cx="7.328" cy="43.865" r="3.502" fill="#ffffff" data-fill-palette-color="accent"></circle></g><g fill="#ffffff" data-fill-palette-color="accent"><path d="M29.246 56.986h-1.337l1.788 1.787v-1.338C29.697 57.188 29.496 56.986 29.246 56.986z" fill="#ffffff" data-fill-palette-color="accent"></path><path d="M21.15 56.986c-0.249 0-0.45 0.201-0.45 0.449v8.098c0 0.249 0.201 0.45 0.45 0.45h8.096c0.25 0 0.451-0.201 0.451-0.45v-6.032l-2.516-2.514L21.15 56.986 21.15 56.986zM26.561 65.495h-0.417v-0.416h0.417V65.495zM28.024 65.079h0.417v0.416h-0.417V65.079zM27.542 65.495h-0.417v-0.416h0.417V65.495z" fill="#ffffff" data-fill-palette-color="accent"></path></g><g fill="#ffffff" data-fill-palette-color="accent"><path d="M29.246 67.315h-1.337l1.788 1.788v-1.338C29.697 67.517 29.496 67.315 29.246 67.315z" fill="#ffffff" data-fill-palette-color="accent"></path><path d="M21.15 67.315c-0.249 0-0.45 0.201-0.45 0.45v8.098c0 0.247 0.201 0.451 0.45 0.451h8.096c0.25 0 0.451-0.204 0.451-0.451v-6.032l-2.516-2.516H21.15zM26.561 75.826h-0.417V75.41h0.417V75.826zM28.024 75.41h0.417v0.416h-0.417V75.41zM27.542 75.826h-0.417V75.41h0.417V75.826z" fill="#ffffff" data-fill-palette-color="accent"></path></g><g fill="#ffffff" data-fill-palette-color="accent"><path d="M39.574 67.315h-1.337l1.788 1.788v-1.338C40.024 67.517 39.824 67.315 39.574 67.315z" fill="#ffffff" data-fill-palette-color="accent"></path><path d="M31.479 67.315c-0.25 0-0.451 0.201-0.451 0.45v8.098c0 0.247 0.2 0.451 0.451 0.451h8.095c0.25 0 0.45-0.204 0.45-0.451v-6.032l-2.514-2.516H31.479zM36.89 75.826h-0.416V75.41h0.416V75.826zM38.354 75.41h0.417v0.416h-0.417V75.41zM37.869 75.826h-0.416V75.41h0.416V75.826z" fill="#ffffff" data-fill-palette-color="accent"></path></g><g fill="#ffffff" data-fill-palette-color="accent"><g fill="#ffffff" data-fill-palette-color="accent"><path d="M64.235 58.381h-1.337l1.787 1.787V58.83C64.686 58.582 64.485 58.381 64.235 58.381z" fill="#ffffff" data-fill-palette-color="accent"></path><path d="M56.142 58.381c-0.251 0-0.451 0.201-0.451 0.449v8.098c0 0.247 0.2 0.451 0.451 0.451h8.094c0.25 0 0.45-0.204 0.45-0.451v-6.032l-2.515-2.515H56.142zM61.551 66.891h-0.416v-0.416h0.416V66.891zM63.015 66.475h0.417v0.416h-0.417V66.475zM62.531 66.891h-0.416v-0.416h0.416V66.891z" fill="#ffffff" data-fill-palette-color="accent"></path></g><g fill="#ffffff" data-fill-palette-color="accent"><path d="M76.686 58.381h-1.337l1.787 1.787V58.83C77.136 58.582 76.936 58.381 76.686 58.381z" fill="#ffffff" data-fill-palette-color="accent"></path><path d="M68.592 58.381c-0.251 0-0.451 0.201-0.451 0.449v8.098c0 0.247 0.2 0.451 0.451 0.451h8.094c0.25 0 0.45-0.204 0.45-0.451v-6.032l-2.515-2.515H68.592zM74.001 66.891h-0.416v-0.416h0.416V66.891zM75.465 66.475h0.417v0.416h-0.417V66.475zM74.981 66.891h-0.416v-0.416h0.416V66.891z" fill="#ffffff" data-fill-palette-color="accent"></path></g><g fill="#ffffff" data-fill-palette-color="accent"><path d="M89.136 58.381h-1.337l1.787 1.787V58.83C89.586 58.582 89.386 58.381 89.136 58.381z" fill="#ffffff" data-fill-palette-color="accent"></path><path d="M81.042 58.381c-0.251 0-0.451 0.201-0.451 0.449v8.098c0 0.247 0.2 0.451 0.451 0.451h8.094c0.25 0 0.45-0.204 0.45-0.451v-6.032l-2.515-2.515H81.042zM86.451 66.891h-0.416v-0.416h0.416V66.891zM87.915 66.475h0.417v0.416h-0.417V66.475zM87.432 66.891h-0.416v-0.416h0.416V66.891z" fill="#ffffff" data-fill-palette-color="accent"></path></g></g><g fill="#ffffff" data-fill-palette-color="accent"><path d="M76.686 39.288h-1.337l1.787 1.788v-1.338C77.136 39.489 76.936 39.288 76.686 39.288z" fill="#ffffff" data-fill-palette-color="accent"></path><path d="M68.592 39.288c-0.251 0-0.451 0.201-0.451 0.45v8.098c0 0.248 0.2 0.451 0.451 0.451h8.094c0.25 0 0.45-0.203 0.45-0.451v-6.032l-2.515-2.515H68.592zM74.001 47.798h-0.416v-0.416h0.416V47.798zM75.465 47.382h0.417v0.416h-0.417V47.382zM74.981 47.798h-0.416v-0.416h0.416V47.798z" fill="#ffffff" data-fill-palette-color="accent"></path></g><g fill="#ffffff" data-fill-palette-color="accent"><path d="M89.136 39.288h-1.337l1.787 1.788v-1.338C89.586 39.489 89.386 39.288 89.136 39.288z" fill="#ffffff" data-fill-palette-color="accent"></path><path d="M81.042 39.288c-0.251 0-0.451 0.201-0.451 0.45v8.098c0 0.248 0.2 0.451 0.451 0.451h8.094c0.25 0 0.45-0.203 0.45-0.451v-6.032l-2.515-2.515H81.042zM86.451 47.798h-0.416v-0.416h0.416V47.798zM87.915 47.382h0.417v0.416h-0.417V47.382zM87.432 47.798h-0.416v-0.416h0.416V47.798z" fill="#ffffff" data-fill-palette-color="accent"></path></g><polygon points="19.774,76.933 19.774,61.791 19.774,61.791 19.774,60.545 15.084,60.545 15.084,61.791 18.528,61.791    18.528,76.933 18.528,78.18 42.042,78.18 42.042,76.933  " fill="#ffffff" data-fill-palette-color="accent"></polygon><path d="M23.514 79.16c-1.723 0-3.118 1.396-3.118 3.116 0 1.723 1.396 3.117 3.118 3.117 1.721 0 3.117-1.395 3.117-3.117C26.631 80.557 25.235 79.16 23.514 79.16zM23.514 83.258c-0.542 0-0.98-0.438-0.98-0.981 0-0.541 0.438-0.979 0.98-0.979 0.54 0 0.979 0.438 0.979 0.979C24.493 82.819 24.054 83.258 23.514 83.258z" fill="#ffffff" data-fill-palette-color="accent"></path><path d="M36.094 79.16c-1.723 0-3.116 1.396-3.116 3.116 0 1.723 1.395 3.117 3.116 3.117 1.723 0 3.118-1.395 3.118-3.117C39.211 80.557 37.814 79.16 36.094 79.16zM36.094 83.258c-0.539 0-0.979-0.438-0.979-0.981 0-0.541 0.44-0.979 0.979-0.979 0.542 0 0.98 0.438 0.98 0.979C37.073 82.819 36.636 83.258 36.094 83.258z" fill="#ffffff" data-fill-palette-color="accent"></path><g fill="#ffffff" data-fill-palette-color="accent"><path d="M50.65 73.029c0 0.586-0.475 1.062-1.061 1.062l0 0c-0.586 0-1.061-0.476-1.061-1.062V27.992c0-0.586 0.475-1.061 1.061-1.061l0 0c0.586 0 1.061 0.475 1.061 1.061V73.029z" fill="#ffffff" data-fill-palette-color="accent"></path><path d="M96.75 73.031c0 0.585-0.475 1.061-1.062 1.061l0 0c-0.585 0-1.061-0.476-1.061-1.061v-45.04c0-0.586 0.476-1.061 1.061-1.061l0 0c0.587 0 1.062 0.475 1.062 1.061V73.031z" fill="#ffffff" data-fill-palette-color="accent"></path><g fill="#ffffff" data-fill-palette-color="accent"><path d="M49.589 51.559c-0.585 0-1.062-0.475-1.062-1.061l0 0c0-0.585 0.477-1.061 1.062-1.061H94.63c0.584 0 1.06 0.476 1.06 1.061l0 0c0 0.586-0.476 1.061-1.06 1.061H49.589z" fill="#ffffff" data-fill-palette-color="accent"></path><path d="M49.589 70.651c-0.585 0-1.062-0.475-1.062-1.062l0 0c0-0.584 0.477-1.06 1.062-1.06H94.63c0.584 0 1.06 0.476 1.06 1.06l0 0c0 0.587-0.476 1.062-1.06 1.062H49.589z" fill="#ffffff" data-fill-palette-color="accent"></path><path d="M49.589 32.493c-0.585 0-1.062-0.475-1.062-1.062l0 0c0-0.584 0.477-1.06 1.062-1.06H94.63c0.584 0 1.06 0.476 1.06 1.06l0 0c0 0.587-0.476 1.062-1.06 1.062H49.589z" fill="#ffffff" data-fill-palette-color="accent"></path></g></g></g></svg></g></svg></g><g></g></svg></g></svg><rect width="234.01730545162533" height="247.2" fill="none" stroke="none" visibility="hidden"></rect></g><defs></defs></svg>